<svg height="512pt" viewBox="0 0 512 512" width="512pt" xmlns="http://www.w3.org/2000/svg"><path d="m512 256c0 117.9375-79.757812 217.246094-188.269531 246.941406-18.902344 5.171875-38.691407 8.234375-59.078125 8.914063-2.875.09375-5.757813.144531-8.652344.144531-9.695312 0-19.277344-.542969-28.691406-1.597656-127.886719-14.253906-227.308594-122.714844-227.308594-254.402344 0-141.386719 114.613281-256 256-256s256 114.613281 256 256zm0 0" fill="#69b8d4"/><g fill="#e6e6e6"><path d="m149.085938 353.519531c0 7.742188-6.289063 14.035157-14.03125 14.035157h-3.898438c-3.878906 0-7.386719 1.566406-9.925781 4.105468-2.539063 2.539063-4.109375 6.039063-4.109375 9.914063 0 7.753906-6.289063 14.035156-14.03125 14.035156h-61.691406c-15.328126-23.5-26.886719-49.664063-33.84375-77.65625-.542969-2.164063-1.054688-4.347656-1.527344-6.53125h67.628906c7.75 0 14.03125 6.28125 14.03125 14.03125 0 7.753906 6.28125 14.035156 14.035156 14.035156h33.332032c3.875 0 7.375 1.566407 9.914062 4.105469 2.550781 2.539062 4.117188 6.050781 4.117188 9.925781zm0 0"/><path d="m455.011719 378.09375c0 3.867188-1.566407 7.378906-4.105469 9.917969-2.539062 2.539062-6.050781 4.117187-9.925781 4.117187h-96.839844c-7.753906 0-14.035156 6.277344-14.035156 14.03125 0 3.867188 1.566406 7.378906 4.105469 9.917969 2.539062 2.539063 6.050781 4.105469 9.929687 4.105469h39.371094c7.753906 0 14.03125 6.289062 14.03125 14.03125 0 3.878906-1.566407 7.386718-4.105469 9.925781s-6.050781 4.109375-9.925781 4.109375h-98.753907c9.269532-30.929688 24.21875-59.394531 43.65625-84.1875h112.566407c7.753906 0 14.03125 6.277344 14.03125 14.03125zm0 0"/><path d="m293.453125 74.214844c0 1.371094-.011719 2.738281-.035156 4.097656-.15625 9.90625-.875 19.675781-2.128907 29.277344h-63.800781c-3.878906 0-7.378906-1.578125-9.917969-4.117188-2.539062-2.539062-4.105468-6.050781-4.105468-9.914062 0-7.753906 6.277344-14.035156 14.023437-14.035156h3.90625c3.875 0 7.378907-1.566407 9.917969-4.105469 2.539062-2.539063 4.105469-6.050781 4.105469-9.925781 0-7.753907-6.28125-14.035157-14.023438-14.035157h-38.253906c-3.867187 0-7.375-1.566406-9.914063-4.105469-2.539062-2.539062-4.117187-6.050781-4.117187-9.925781 0-7.742187 6.289063-14.023437 14.03125-14.023437h95.265625c3.308594 16.425781 5.046875 33.417968 5.046875 50.8125zm0 0"/></g><path d="m325.871094 466.242188c-.261719 6.878906-.605469 13.847656-1.042969 20.898437-.3125 5.214844-.679687 10.480469-1.097656 15.800781-21.566407 5.902344-44.28125 9.058594-67.730469 9.058594-9.695312 0-19.277344-.542969-28.691406-1.597656 7.878906-82.796875 2.027344-151.375-5.550782-198.5625-10.886718-67.699219-27.59375-107.425782-27.761718-107.824219l30.96875-13.382813 56.5625-24.453124c1.808594 4.191406 26.570312 62.621093 38.578125 159.722656.824219 6.75 1.597656 13.691406 2.296875 20.804687 1.503906 15.257813 2.664062 31.335938 3.367187 48.210938.28125 6.84375.488281 13.816406.613281 20.910156.292969 16.175781.148438 32.988281-.511718 50.414063zm0 0" fill="#ff931f"/><path d="m264.652344 511.855469c-2.875.09375-5.757813.144531-8.652344.144531-9.695312 0-19.277344-.542969-28.691406-1.597656 7.878906-82.796875 2.027344-151.375-5.550782-198.5625-10.886718-67.699219-27.59375-107.425782-27.761718-107.824219l30.96875-13.382813c11.796875 30.75 51.683594 149.441407 39.6875 321.222657zm0 0" fill="#e57a10"/><path d="m261.085938 259.578125c0 27.976563-22.679688 50.652344-50.652344 50.652344s-50.648438-22.675781-50.648438-50.652344c0-27.972656 22.675782-50.648437 50.648438-50.648437s50.652344 22.675781 50.652344 50.648437zm0 0" fill="#704028"/><path d="m346.90625 240.507812c0 27.972657-22.675781 50.648438-50.652344 50.648438-27.972656 0-50.648437-22.675781-50.648437-50.648438 0-27.972656 22.675781-50.652343 50.648437-50.652343 27.976563 0 50.652344 22.679687 50.652344 50.652343zm0 0" fill="#704028"/><path d="m256 218.71875c-49.488281-69.503906-70.390625-139.191406-.886719-189.21875 44.980469-32.378906 101.324219-37.445312 149.28125-18.425781 15.839844 6.28125 17.140625 28.054687 2.160157 36.171875-92.292969 49.984375-80.984376 153.777344-150.554688 171.472656zm0 0" fill="#156000"/><path d="m256 218.71875c-66.800781 26.277344-118.261719-64.566406-222.363281-51.210938-16.90625 2.164063-28.570313-16.269531-19.382813-30.617187 23.460938-36.648437 61.757813-62.878906 106.425782-70.191406 5.367187-.878907 10.105468 3.882812 8.84375 9.171875-2.023438 8.484375 2.375 16.320312 2.375 16.320312 0-15.777344 27.292968-29.308594 51.597656-22.246094.007812 0 .019531 0 .03125.011719 1.472656.46875 2.925781.96875 4.34375 1.503907.179687.0625.355468.136718.535156.207031 51.554688 19.582031 67.238281 77.878906 67.59375 147.050781zm0 0" fill="#358d1e"/><path d="m256 218.722656c-8.683594 31.011719-34.304688 45.335938-64.636719 59.929688-8.492187 4.082031-18.621093 2.203125-25.136719-4.601563-11.105468-11.609375-28.863281-23.910156-54.210937-23.910156 0 0 12.898437 18.507813 21.132813 39.363281 3.617187 9.160156.472656 19.53125-7.425782 25.414063-16.640625 12.398437-32.195312 28.253906-44.765625 50.191406-8.46875 14.785156-30.210937 12.953125-36.101562-3.027344-17.867188-48.40625-11.457031-104.601562 22.003906-148.789062 51.6875-68.289063 120.839844-45.710938 189.140625 5.429687zm0 0" fill="#5cae4a"/><path d="m478.363281 167.5c-4.445312-.570312-8.792969-.949219-13.046875-1.15625-7.449218-.359375-14.0625-4.765625-17.328125-11.46875-4.617187-9.484375-10.921875-19.445312-19.425781-27.949219.125.492188 2.367188 9.101563 4.457031 20.851563 1.863281 10.488281-4.605469 20.742187-14.941406 23.316406-66.546875 16.589844-109.574219 68.28125-162.078125 47.628906.4375-85.320312 24.183594-154.085937 109.820312-154.085937 55.429688 0 104.113282 28.800781 131.921876 72.257812 9.183593 14.347657-2.46875 32.785157-19.378907 30.605469zm0 0" fill="#358d1e"/><path d="m478.65625 343.46875c-4.503906 16.425781-26.007812 20.113281-35.714844 6.101562-59.796875-86.257812-161.726562-63.632812-186.941406-130.851562 63.664062-56.8125 130.632812-85.222656 187.976562-21.621094.035157.039063.070313.078125.105469.117188 4.054688 4.503906 1.175781 11.664062-4.855469 12.292968-32.605468 3.417969-52.519531 21.058594-52.519531 21.058594 33.046875-14.695312 60.230469-9.570312 76.710938-3.113281 1.667969.652344 3.042969 1.890625 3.855469 3.484375 17.914062 35.152344 21.558593 75.425781 11.382812 112.53125zm0 0" fill="#5cae4a"/><path d="m322.402344 346.707031-73.195313 12.289063-3.457031-20.605469 74.355469-12.488281c.824219 6.75 1.597656 13.691406 2.296875 20.804687zm0 0" fill="#e57a10"/><path d="m326.382812 415.828125-71.332031 5.246094-1.539062-20.847657 72.257812-5.308593c.28125 6.84375.488281 13.816406.613281 20.910156zm0 0" fill="#e57a10"/><path d="m325.871094 466.242188c-.261719 6.878906-.605469 13.847656-1.042969 20.898437h-74.628906v-20.898437zm0 0" fill="#e57a10"/></svg>