<svg height="512pt" viewBox="-11 0 511 512" width="512pt" xmlns="http://www.w3.org/2000/svg"><path d="m489.53125 244.515625c0 53.566406-17.226562 103.105469-46.4375 143.386719-1.1875 1.636718-2.394531 3.253906-3.621094 4.859375-44.671875 58.515625-115.152344 96.269531-194.457031 96.269531-79.3125 0-149.792969-37.753906-194.453125-96.269531-1.238281-1.605469-2.445312-3.230469-3.632812-4.871094-29.214844-40.277344-46.429688-89.820313-46.429688-143.375 0-135.042969 109.472656-244.515625 244.515625-244.515625s244.515625 109.472656 244.515625 244.515625zm0 0" fill="#69b8d4"/><path d="m444.96875 324.378906c0 23.550782-1.90625 46.449219-5.496094 68.382813-44.671875 58.515625-115.152344 96.269531-194.457031 96.269531-79.3125 0-149.792969-37.753906-194.453125-96.269531-3.59375-21.933594-5.5-44.839844-5.5-68.382813 0-161.570312 89.523438-292.550781 199.953125-292.550781 110.433594 0 199.953125 130.980469 199.953125 292.550781zm0 0" fill="#666"/><path d="m326.589844 377.9375c58.847656-16.75 118.269531-6.847656 162.941406 22.128906-42.621094-43.199218-106.867188-62.433594-169.351562-44.644531-62.480469 17.785156-106.964844 67.96875-120.449219 127.136719 22.714843-48.152344 68.011719-87.867188 126.859375-104.621094zm0 0" fill="#358d1e"/><path d="m317.714844 403.484375c61.128906 2.636719 114.402344 30.757813 147.671875 72.324219-26.84375-54.421875-81.757813-92.914063-146.664063-95.714844-64.902344-2.800781-122.933594 30.816406-154.363281 82.722656 36.726563-38.546875 92.226563-61.96875 153.355469-59.332031zm0 0" fill="#5cae4a"/><path d="m318.746094 405.113281c46.921875-39.265625 105.226562-54.421875 157.824218-46.152343-56.519531-22.09375-123.027343-13.496094-172.851562 28.195312" fill="#5cae4a"/><path d="m311.960938 404.023438c59.574218-13.941407 118.457031-1.230469 161.703124 29.828124-40.523437-45.167968-103.78125-67.425781-167.039062-52.625" fill="#358d1e"/><path d="m312.773438 362.582031c-45.679688 40.703125-69.164063 96.175781-68.644532 149.417969-13.628906-59.132812 4.566406-123.679688 53.070313-166.898438" fill="#358d1e"/><path d="m309.050781 90.8125s25.949219-21.957031 25.949219-38.921875c0-33.933594 23.222656-61.148437 71.855469-48.90625 59.039062 14.867187 25.949219 79.113281-64.871094 106.789063" fill="#999"/><path d="m344.980469 87.816406s18.960937-30.9375 23.953125-49.898437c4.988281-18.964844 46.90625-1 25.945312 19.960937-20.957031 20.957032-49.898437 29.9375-49.898437 29.9375zm0 0" fill="#727272"/><path d="m171.488281 81.609375c-7.410156-7.949219-16.453125-19.703125-16.453125-29.71875 0-33.933594-23.222656-61.148437-71.859375-48.90625-59.035156 14.867187-25.949219 79.113281 64.871094 106.789063" fill="#8e8e8e"/><path d="m145.054688 87.816406s-18.964844-30.9375-23.953126-49.898437c-4.992187-18.964844-46.90625-1-25.949218 19.960937 20.957031 20.957032 49.902344 29.9375 49.902344 29.9375zm0 0" fill="#727272"/><path d="m377.09375 138.375-15.996094 206.523438-.460937 5.925781c-3.214844 41.550781-37.863281 73.605469-79.523438 73.605469h-72.195312c-41.667969 0-76.308594-32.054688-79.53125-73.605469l-.460938-5.917969-16-206.53125c-3.699219-47.835938 34.113281-88.703125 82.097657-88.703125h99.972656c47.984375 0 85.8125 40.867187 82.097656 88.703125zm0 0" fill="#999"/><path d="m208.917969 424.429688c-41.667969 0-76.308594-32.054688-79.53125-73.605469l-.460938-5.917969-16-206.53125c-3.699219-47.835938 34.113281-88.703125 82.097657-88.703125h38.59375c-38.59375 0-88.433594 48.3125-70.230469 144.554687 18.214843 96.25-19.492188 215.890626 45.53125 230.203126zm0 0" fill="#727272"/><path d="m229.96875 92.238281-32.957031 134.777344c-7.613281 31.125 15.957031 61.15625 48.003906 61.15625 32.042969 0 55.613281-30.03125 48-61.15625l-32.957031-134.777344c-3.851563-15.746093-26.238282-15.746093-30.089844 0zm0 0" fill="#e6e6e6"/><path d="m244.605469 288.175781c-31.835938-.25-55.179688-30.160156-47.59375-61.160156l32.957031-134.777344c1.25-5.125 4.460938-8.582031 8.363281-10.351562l-14.386719 183.769531c-.941406 12.078125 8.558594 22.429688 20.660157 22.519531zm0 0" fill="#ccc"/><g fill="#3d322c"><path d="m219.316406 349c0-8.976562-9.898437-16.257812-22.109375-16.257812-12.210937 0-22.113281 7.28125-22.113281 16.257812 0 8.980469 9.902344 16.257812 22.113281 16.257812 12.210938 0 22.109375-7.277343 22.109375-16.257812zm0 0"/><path d="m313.117188 349c0-8.976562-9.902344-16.257812-22.113282-16.257812-12.210937 0-22.109375 7.28125-22.109375 16.257812 0 8.980469 9.898438 16.257812 22.109375 16.257812 12.210938 0 22.113282-7.277343 22.113282-16.257812zm0 0"/><path d="m150.976562 259.484375c0 15.84375-12.84375 28.691406-28.691406 28.691406-15.84375 0-28.691406-12.847656-28.691406-28.691406 0-15.847656 12.847656-28.691406 28.691406-28.691406 15.847656 0 28.691406 12.84375 28.691406 28.691406zm0 0"/></g><path d="m131.566406 254.421875c0 6.789063-5.503906 12.292969-12.296875 12.292969-6.789062 0-12.292969-5.503906-12.292969-12.292969 0-6.792969 5.503907-12.296875 12.292969-12.296875 6.792969 0 12.296875 5.503906 12.296875 12.296875zm0 0" fill="#fff"/><path d="m396.433594 259.484375c0 15.84375-12.847656 28.691406-28.691406 28.691406-15.847657 0-28.691407-12.847656-28.691407-28.691406 0-15.847656 12.84375-28.691406 28.691407-28.691406 15.84375 0 28.691406 12.84375 28.691406 28.691406zm0 0" fill="#3d322c"/><path d="m391.992188 254.421875c0 6.789063-5.503907 12.292969-12.292969 12.292969-6.792969 0-12.296875-5.503906-12.296875-12.292969 0-6.792969 5.503906-12.296875 12.296875-12.296875 6.789062 0 12.292969 5.503906 12.292969 12.296875zm0 0" fill="#fff"/><path d="m344.960938 266.636719c-13.453126 0-21.449219 15.253906-13.582032 26.167969 8.132813 11.285156 21.390625 18.628906 36.363282 18.628906 14.972656 0 28.226562-7.34375 36.363281-18.628906 7.867187-10.914063-.128907-26.167969-13.585938-26.167969zm0 0" fill="#999"/><path d="m99.507812 266.636719c-13.457031 0-21.453124 15.253906-13.585937 26.167969 8.136719 11.285156 21.390625 18.628906 36.363281 18.628906s28.230469-7.34375 36.363282-18.628906c7.867187-10.914063-.128907-26.167969-13.582032-26.167969zm0 0" fill="#727272"/></svg>