<svg height="512pt" viewBox="0 0 512 512" width="512pt" xmlns="http://www.w3.org/2000/svg"><path d="m0 256c0 105.566406 63.90625 196.210938 155.136719 235.363281 30.949219 13.28125 65.042969 20.636719 100.863281 20.636719 114.707031 0 211.800781-75.453125 244.347656-179.429688 7.578125-24.179687 11.652344-49.894531 11.652344-76.570312 0-141.386719-114.613281-256-256-256s-256 114.613281-256 256zm0 0" fill="#69b8d4"/><g fill="#156000"><path d="m433.765625 1.070312c-2.335937 28.3125-11.167969 55.066407-25.921875 76.480469-14.757812 21.457031-33.421875 34.9375-52.988281 41.414063 5.886719-25.027344 15.539062-49.183594 29.566406-70.660156 14.023437-21.4375 30.808594-37.542969 49.34375-47.234376zm0 0"/><path d="m471.4375 91.425781c-10.84375 30.980469-28.554688 58.699219-51.371094 79.308594-22.835937 20.652344-47.742187 31.761719-71.527344 35.34375 14.40625-25.386719 32.625-49.757813 54.609376-70.855469 21.976562-21.054687 45.152343-36.144531 68.289062-43.796875zm0 0"/><path d="m467.753906 185.769531c-13.785156 29.636719-34.078125 55.414063-58.773437 73.660157-24.714844 18.292968-50.566407 26.921874-74.589844 28.179687 16.78125-23.835937 37.261719-46.257813 61.171875-65.050781 23.902344-18.75 48.421875-31.453125 72.191406-36.789063zm0 0"/><path d="m476.597656 288.097656c-21.039062 27.597656-48.066406 49.652344-78.121094 63.0625-30.085937 13.453125-59.308593 16.816406-85.074218 13.285156 22.953125-20.589843 49.566406-39.273437 78.960937-53.617187 29.382813-14.304687 58.039063-22.320313 84.234375-22.730469zm0 0"/><path d="m286.40625 436.570312c26.058594 10.53125 57.113281 15.484376 91.429688 10.769532 25.316406-3.46875 50.050781-12.046875 72.765624-25.011719l.011719-.011719c4.878907-5.695312 9.519531-11.621094 13.875-17.730468-24.859375-5.488282-53.113281-5.226563-83.195312.113281-33.980469 6.0625-66.171875 17.566406-94.886719 31.871093zm0 0"/><path d="m254.023438 504.109375c2.6875 2.699219 5.488281 5.300781 8.402343 7.808594 25.183594-.617188 49.445313-4.871094 72.316407-12.257813-.261719-.050781-.53125-.105468-.792969-.148437-26.925781-4.679688-54.261719-2.296875-79.925781 4.597656zm0 0"/><path d="m252.148438 20.429688c7.699218 21.757812 19.199218 42.320312 34.933593 60.199218 15.726563 17.839844 33.847657 30.804688 53.152344 38.023438-4.792969-24.855469-15.769531-47.972656-32.144531-65.832032-16.386719-17.898437-35.972656-28.335937-55.941406-32.390624zm0 0"/><path d="m223.960938 93.785156c11.386718 22.863282 26.878906 45.308594 46.5625 65.578125 19.6875 20.222657 41.261718 35.710938 63.503906 44.914063-7.785156-27.730469-22.492188-53.390625-42.933594-73.332032-20.453125-19.992187-43.910156-31.863281-67.132812-37.160156zm0 0"/><path d="m221.214844 164.117188c9.125 23.75 22.386718 47.515624 40.027344 69.539062 17.644531 21.988281 37.628906 39.464844 58.878906 50.761719-5.082032-28.3125-17.25-55.203125-35.675782-76.960938-18.429687-21.808593-40.628906-35.839843-63.230468-43.339843zm0 0"/><path d="m188.519531 232.871094c11.101563 24.375 26.480469 49.308594 46.257813 72.703125 19.789062 23.351562 41.703125 42.171875 64.710937 54.367187-6.617187-29.765625-20.808593-57.867187-41.476562-80.71875-20.671875-22.902344-45.050781-37.84375-69.492188-46.351562zm0 0"/><path d="m143.527344 303.167969c14.089844 24.5625 32.636718 50.023437 55.707031 73.71875 23.070313 23.652343 48.023437 42.425781 73.71875 53.9375-9.667969-30.316407-27.308594-58.40625-51.371094-81.160157-24.070312-22.804687-51.363281-37.671874-78.054687-46.496093zm0 0"/><path d="m127.300781 401.863281c11.105469 21.683594 26.527344 42.921875 46.816407 60.757813 20.28125 17.816406 43.125 29.832031 67.007812 34.601562-8.648438-24.957031-24.265625-46.886718-45.367188-63.726562-21.121093-16.863282-44.964843-26.785156-68.457031-31.632813zm0 0"/><path d="m233.578125 511.027344c5.347656.472656 10.761719.773437 16.203125.898437 66.175781-120.789062 102.152344-255.621093 105.078125-392.964843-4.882813-.105469-9.75-.207032-14.621094-.3125-2.933593 137.308593-39.453125 272.101562-106.660156 392.378906zm0 0"/></g><path d="m182.796875 0c-12.410156 0-22.464844 10.058594-22.464844 22.464844v75.320312h44.929688v-75.320312c0-12.40625-10.058594-22.464844-22.464844-22.464844zm0 0" fill="#ff931f"/><path d="m141.105469 13.617188c-12.40625 0-22.464844 10.058593-22.464844 22.464843v75.320313h44.929687v-75.320313c0-12.40625-10.058593-22.464843-22.464843-22.464843zm0 0" fill="#ff931f"/><path d="m101.617188 42.210938c-12.40625 0-22.464844 10.058593-22.464844 22.464843v75.324219h44.929687v-75.324219c0-12.40625-10.058593-22.464843-22.464843-22.464843zm0 0" fill="#ff931f"/><path d="m359.132812 484.5c-.449218 2.402344-1.214843 4.691406-2.269531 6.863281-30.949219 13.28125-65.042969 20.636719-100.863281 20.636719-17.1875 0-33.992188-1.691406-50.226562-4.933594-38.191407-7.59375-73.3125-23.6875-103.332032-46.234375-42.402344-31.816406-74.59375-76.507812-90.789062-128.261719 20.582031-21.566406 41.105468-42.902343 41.105468-87.71875v-67.40625c0-67.300781 54.5625-121.867187 121.867188-121.867187 3.058594 0 6.101562.113281 9.109375.34375 39.332031 2.894531 73.457031 24.460937 93.582031 55.871094 12.140625 18.957031 19.171875 41.484375 19.171875 65.652343v125.953126c0 39.496093 73.542969 123.335937 62.644531 181.101562zm0 0" fill="#f73e3e"/><path d="m117.113281 319.738281c21.429688 59.402344 7.335938 106.851563-14.671875 141.09375-42.402344-31.816406-74.59375-76.507812-90.789062-128.261719 20.582031-21.566406 41.105468-42.902343 41.105468-87.71875v-67.40625c0-67.300781 54.5625-121.867187 121.867188-121.867187 3.058594 0 6.101562.113281 9.109375.34375-62.777344 7.429687-112.878906 135.617187-66.621094 263.816406zm0 0" fill="#d82525"/><path d="m359.132812 484.5c-.449218 2.402344-1.214843 4.691406-2.269531 6.863281-30.949219 13.28125-65.042969 20.636719-100.863281 20.636719-17.1875 0-33.992188-1.691406-50.226562-4.933594-19.15625-85.597656 38.1875-202.59375 38.1875-244.953125l52.527343-24.679687v65.964844c0 39.496093 73.542969 123.335937 62.644531 181.101562zm0 0" fill="#f2f2f2"/><path d="m223.628906 202.375c0 44.847656-32.757812 81.210938-73.175781 81.210938-18.222656 0-34.886719-7.386719-47.699219-19.625-15.597656-14.886719-25.484375-36.957032-25.484375-61.585938 0-29.515625 14.191407-55.359375 35.414063-69.578125 11.023437-7.386719 23.945312-11.640625 37.769531-11.640625 40.417969 0 73.175781 36.363281 73.175781 81.21875zm0 0" fill="#f2f2f2"/><path d="m312.375 242.9375c0 10.585938-8.578125 19.171875-19.160156 19.171875h-49.246094c-14.609375 0-26.449219-11.835937-26.449219-26.445313v-27.460937c0-14.597656 11.839844-26.433594 26.449219-26.433594h7.238281c3.5625 0 7.066407.300781 10.460938.886719 12.707031 2.195312 24.0625 8.296875 32.789062 17.03125 11.074219 11.066406 17.917969 26.363281 17.917969 43.25zm0 0" fill="#ff931f"/><path d="m312.375 242.9375c0 10.585938-8.578125 19.171875-19.160156 19.171875h-24.746094c-14.597656 0-26.433594-11.835937-26.433594-26.445313v-27.460937c0-12.246094 8.328125-22.546875 19.632813-25.546875 12.707031 2.195312 24.0625 8.296875 32.789062 17.03125 11.074219 11.066406 17.917969 26.363281 17.917969 43.25zm0 0" fill="#ffbb16"/><path d="m350.964844 212.4375c0 .417969-.011719.835938-.03125 1.242188-.648438 14.316406-12.457032 25.726562-26.9375 25.726562h-69.277344c-20.542969 0-37.199219-16.65625-37.199219-37.199219v-38.628906c0-10.554687 4.398438-20.085937 11.464844-26.855469 6.675781-6.40625 15.746094-10.34375 25.734375-10.34375h10.199219c23.761719 0 45.273437 9.632813 60.84375 25.203125 15.570312 15.578125 25.203125 37.082031 25.203125 60.855469zm0 0" fill="#ff931f"/><path d="m350.964844 212.4375c0 .417969-.011719.835938-.03125 1.242188-4.484375 3.332031-10.03125 5.296874-16.039063 5.296874h-69.277343c-20.542969 0-37.199219-16.65625-37.199219-37.199218v-38.617188c0-2.195312.1875-4.347656.566406-6.4375 6.675781-6.40625 15.746094-10.34375 25.734375-10.34375h10.199219c23.761719 0 45.273437 9.632813 60.84375 25.203125 15.570312 15.578125 25.203125 37.082031 25.203125 60.855469zm0 0" fill="#ffbb16"/><path d="m259.734375 184.933594c-5.265625 0-9.53125-4.265625-9.53125-9.53125v-20.425782c0-5.261718 4.265625-9.53125 9.53125-9.53125 5.261719 0 9.53125 4.269532 9.53125 9.53125v20.425782c0 5.265625-4.269531 9.53125-9.53125 9.53125zm0 0" fill="#142f01"/><path d="m188.304688 177.742188c0 17.1875-13.929688 31.121093-31.117188 31.121093s-31.121094-13.933593-31.121094-31.121093c0-17.183594 13.933594-31.117188 31.121094-31.117188s31.117188 13.933594 31.117188 31.117188zm0 0" fill="#3d322c"/><path d="m183.492188 172.25c0 7.367188-5.972657 13.335938-13.335938 13.335938-7.367188 0-13.335938-5.96875-13.335938-13.335938 0-7.363281 5.96875-13.332031 13.335938-13.332031 7.363281 0 13.335938 5.96875 13.335938 13.332031zm0 0" fill="#fff"/><path d="m102.753906 263.960938c-15.597656-14.886719-25.484375-36.957032-25.484375-61.585938 0-29.515625 14.191407-55.359375 35.414063-69.578125-12.707032 36.371094-17.648438 82.441406-9.929688 131.164063zm0 0" fill="#ccc"/></svg>