<svg height="512pt" viewBox="0 0 512 512" width="512pt" xmlns="http://www.w3.org/2000/svg"><path d="m512 256c0 4.796875-.136719 9.5625-.398438 14.292969-1.105468 20.210937-4.566406 39.800781-10.09375 58.496093-2.601562 8.753907-5.652343 17.324219-9.132812 25.671876-2.695312 6.46875-5.652344 12.808593-8.859375 19.007812-10.71875 20.730469-24.199219 39.808594-39.945313 56.757812-9.792968 10.53125-20.460937 20.238282-31.890624 29.007813-5.570313 4.28125-11.328126 8.335937-17.25 12.140625-5.433594 3.511719-11.015626 6.8125-16.71875 9.894531-14.660157 7.941407-30.179688 14.480469-46.382813 19.464844-9.800781 3.019531-19.855469 5.457031-30.117187 7.285156-14.679688 2.613281-29.789063 3.980469-45.210938 3.980469-13.855469 0-27.449219-1.097656-40.699219-3.21875-35.851562-5.726562-69.214843-18.890625-98.460937-37.867188-7.753906-5.035156-15.214844-10.46875-22.359375-16.300781-15.445313-12.558593-29.394531-26.894531-41.535157-42.695312-1.546874-2.003907-3.0625-4.03125-4.546874-6.089844-5.347657-7.398437-10.3125-15.097656-14.855469-23.0625-6.65625-11.660156-12.425781-23.894531-17.210938-36.613281-3.457031-9.171875-6.40625-18.609375-8.796875-28.253906-3.261718-13.152344-5.519531-26.714844-6.65625-40.582032-.585937-7.03125-.878906-14.136718-.878906-21.316406 0-3.929688.0820312-7.847656.273438-11.734375.644531-14.542969 2.515624-28.765625 5.503906-42.578125 3.835937-17.753906 9.507812-34.816406 16.8125-50.992188 40.15625-88.859374 129.558594-150.695312 233.410156-150.695312 60.3125 0 115.742188 20.855469 159.492188 55.746094 8.515624 6.792968 16.59375 14.117187 24.167968 21.921875 8.035156 8.265625 15.519532 17.082031 22.394532 26.382812 6.9375 9.402344 13.257812 19.300781 18.878906 29.632813 4.757812 8.703125 9.007812 17.722656 12.726562 27.011718 3.335938 8.285157 6.238282 16.792969 8.707032 25.472657 4.648437 16.46875 7.699218 33.617187 8.964843 51.265625v.007812c.449219 6.132813.667969 12.308594.667969 18.558594zm0 0" fill="#5cae4a"/><g fill="#358d1e"><path d="m281.648438 3.617188c6.105468 22.234374 17.886718 43.234374 35.355468 60.703124 17.472656 17.46875 38.472656 29.25 60.703125 35.355469-6.105469-22.234375-17.886719-43.234375-35.355469-60.703125-17.464843-17.46875-38.46875-29.25-60.703124-35.355468zm0 0"/><path d="m244.582031 76.339844c12.757813 23.953125 31.539063 46.339844 55.75 64.660156 24.210938 18.316406 50.859375 30.304688 77.378907 36.070312-12.757813-23.953124-31.539063-46.339843-55.75-64.65625-24.210938-18.320312-50.859376-30.308593-77.378907-36.074218zm0 0"/><path d="m244.582031 149.871094c12.757813 23.953125 31.539063 46.339844 55.75 64.65625 24.210938 18.320312 50.859375 30.308594 77.378907 36.074218-12.757813-23.953124-31.539063-46.339843-55.75-64.660156-24.210938-18.316406-50.859376-30.304687-77.378907-36.070312zm0 0"/><path d="m218.378906 227.230469c17.699219 23.707031 41.570313 45.390625 70.542969 62.519531 28.976563 17.125 59.484375 27.582031 88.789063 31.65625-17.699219-23.707031-41.570313-45.390625-70.546876-62.519531-28.976562-17.125-59.480468-27.582031-88.785156-31.65625zm0 0"/><path d="m188.089844 314.703125c23.773437 21.675781 53.730468 40.542969 88.214844 54.191406 34.484374 13.648438 69.238281 20.390625 101.40625 20.855469-23.773438-21.671875-53.730469-40.539062-88.214844-54.1875s-69.242188-20.394531-101.40625-20.859375zm0 0"/><path d="m212.296875 422.941406c22.164063 16.058594 49.113281 28.09375 79.195313 34.105469 30.082031 6.011719 59.585937 5.257813 86.21875-1.050781-22.164063-16.058594-49.113282-28.089844-79.195313-34.101563s-59.585937-5.261719-86.21875 1.046875zm0 0"/><path d="m439.660156 77.667969c-13.863281 10.28125-29.234375 17.617187-45.230468 22.003906 4.25-15.496094 11.273437-30.40625 21.0625-43.925781 8.515624 6.792968 16.59375 14.117187 24.167968 21.921875zm0 0"/><path d="m480.933594 133.683594c-2.957032 2.496094-5.996094 4.941406-9.128906 7.316406-24.210938 18.316406-50.855469 30.3125-77.375 36.070312 12.757812-23.949218 31.535156-46.34375 55.742187-64.660156 3.910156-2.957031 7.871094-5.738281 11.882813-8.359375 6.9375 9.402344 13.257812 19.300781 18.878906 29.632813zm0 0"/><path d="m502.367188 186.167969c-8.945313 10.1875-19.144532 19.730469-30.5625 28.359375-24.210938 18.316406-50.855469 30.3125-77.375 36.070312 12.757812-23.949218 31.535156-46.339844 55.742187-64.65625 13.855469-10.480468 28.515625-18.894531 43.488281-25.246094 3.335938 8.285157 6.238282 16.792969 8.707032 25.472657zm0 0"/><path d="m512 256c0 4.796875-.136719 9.5625-.398438 14.292969-8.816406 6.972656-18.285156 13.492187-28.386718 19.457031-28.976563 17.125-59.476563 27.585938-88.785156 31.660156 17.699218-23.707031 41.5625-45.390625 70.539062-62.527344 15.171875-8.964843 30.75-16.101562 46.363281-21.441406.449219 6.132813.667969 12.308594.667969 18.558594zm0 0"/><path d="m501.507812 328.789062c-4.617187 15.558594-10.65625 30.507813-17.992187 44.679688-30.40625 10.582031-60.75 15.871094-89.085937 16.277344 23.769531-21.671875 53.726562-40.542969 88.207031-54.1875 6.292969-2.488282 12.582031-4.742188 18.871093-6.769532zm0 0"/><path d="m443.570312 430.226562c-9.792968 10.53125-20.460937 20.238282-31.890624 29.007813-5.863282-.816406-11.621094-1.902344-17.25-3.242187 14.492187-10.488282 31.019531-19.265626 49.140624-25.765626zm0 0"/><path d="m394.429688 99.671875v371.703125c-5.433594 3.511719-11.015626 6.8125-16.71875 9.894531v-381.597656zm0 0"/></g><path d="m492.375 354.460938c-2.695312 6.46875-5.652344 12.808593-8.859375 19.007812-10.71875 20.730469-24.199219 39.808594-39.945313 56.757812-9.792968 10.53125-20.460937 20.238282-31.890624 29.007813-5.570313 4.28125-11.328126 8.335937-17.25 12.140625-5.433594 3.511719-11.015626 6.8125-16.71875 9.894531-14.660157 7.941407-30.179688 14.480469-46.382813 19.464844-9.800781 3.019531-19.855469 5.457031-30.117187 7.285156l30.117187-209.828125c0 31.652344 72.117187 98.328125 161.046875 56.269532zm0 0" fill="#142f01"/><path d="m101.960938 113.109375c-12.757813 23.949219-31.546876 46.332031-55.753907 64.660156-12.917969 9.769531-26.511719 17.730469-40.429687 23.917969 3.835937-17.753906 9.507812-34.816406 16.8125-50.992188.660156-.5 1.316406-1.015624 1.984375-1.515624 24.210937-18.316407 50.867187-30.3125 77.386719-36.070313zm0 0" fill="#358d1e"/><path d="m101.960938 186.640625c-12.757813 23.949219-31.546876 46.339844-55.753907 64.65625-14.433593 10.921875-29.71875 19.582031-45.328125 26.019531-.585937-7.03125-.878906-14.136718-.878906-21.316406 0-3.929688.0820312-7.847656.273438-11.734375 7.355468-7.648437 15.472656-14.867187 24.300781-21.554687 24.210937-18.320313 50.867187-30.3125 77.386719-36.070313zm0 0" fill="#358d1e"/><path d="m128.167969 263.992188c-17.703125 23.710937-41.578125 45.390624-70.550781 62.515624-13.523438 7.984376-27.378907 14.527344-41.285157 19.644532-3.457031-9.171875-6.40625-18.609375-8.796875-28.253906 9.777344-8.023438 20.40625-15.484376 31.847656-22.246094 28.972657-17.125 59.476563-27.582032 88.785157-31.660156zm0 0" fill="#358d1e"/><path d="m158.449219 351.472656c-23.773438 21.671875-53.730469 40.542969-88.210938 54.1875-5.757812 2.277344-11.527343 4.367188-17.292969 6.257813-1.546874-2.003907-3.0625-4.03125-4.546874-6.089844-5.347657-7.398437-10.3125-15.097656-14.855469-23.0625 7.574219-3.738281 15.410156-7.230469 23.507812-10.4375 34.480469-13.644531 69.234375-20.394531 101.398438-20.855469zm0 0" fill="#358d1e"/><path d="m134.25 459.703125c-5.519531 3.992187-11.328125 7.742187-17.410156 11.210937-7.753906-5.035156-15.214844-10.46875-22.359375-16.300781 13.738281.347657 27.082031 2.089844 39.769531 5.089844zm0 0" fill="#358d1e"/><path d="m331.328125 298.191406v202.542969c-23.816406 7.328125-49.113281 11.265625-75.328125 11.265625-85.429688 0-161.09375-41.847656-207.601562-106.171875v-225.070313c0-72.246093 69.789062-133.277343 165.503906-152.871093 20.949218-4.292969 43.164062-6.601563 66.140625-6.601563l-66.140625 159.472656c31.273437 0 59.695312 12.222657 80.726562 32.152344 22.601563 21.410156 36.699219 51.699219 36.699219 85.28125zm0 0" fill="#142f01"/><path d="m219.660156 154.3125c0 36.054688-29.230468 65.28125-65.28125 65.28125-36.054687 0-65.285156-29.226562-65.285156-65.28125s29.230469-65.28125 65.285156-65.28125h98.078125" fill="#fff"/><path d="m191.773438 153.414062c0 19.335938-15.675782 35.007813-35.011719 35.007813-19.332031 0-35.007813-15.671875-35.007813-35.007813 0-19.335937 15.675782-35.011718 35.007813-35.011718 19.335937 0 35.011719 15.675781 35.011719 35.011718zm0 0" fill="#3d322c"/><path d="m186.355469 147.234375c0 8.285156-6.71875 15-15.003907 15-8.285156 0-15-6.714844-15-15s6.714844-15 15-15c8.285157 0 15.003907 6.714844 15.003907 15zm0 0" fill="#fff"/><path d="m511.6875 180.757812h-297.785156v-152.871093c20.949218-4.292969 43.152344-6.601563 66.140625-6.601563 36.332031 0 70.71875 5.757813 101.324219 16.027344 68.167968 22.863281 117.601562 68.074219 128.1875 121.785156 1.410156 7.082032 2.132812 14.3125 2.132812 21.660156zm0 0" fill="#ff931f"/><path d="m511.6875 180.757812h-297.785156v-115.003906c42.015625 68.660156 134.332031 114.699219 295.652344 93.34375 1.410156 7.082032 2.132812 14.3125 2.132812 21.660156zm0 0" fill="#e57a10"/><path d="m511.683594 180.757812h-130.3125v-143.445312c77.148437 25.886719 130.3125 80.394531 130.3125 143.445312zm0 0" fill="#142f01"/><path d="m155.925781 218.832031c0 18.066407-14.644531 32.710938-32.710937 32.710938s-32.714844-14.644531-32.714844-32.710938c0-18.066406 14.648438-32.710937 32.714844-32.710937s32.710937 14.644531 32.710937 32.710937zm0 0" fill="#f73e3e"/><path d="m331.328125 298.191406v202.542969c-23.816406 7.328125-49.113281 11.265625-75.328125 11.265625-13.855469 0-27.449219-1.097656-40.699219-3.21875-46.496093-213.773438 31.691407-290.417969 79.328125-295.863281 22.601563 21.402343 36.699219 51.691406 36.699219 85.273437zm0 0" fill="#ffbb16"/></svg>