<svg xmlns="http://www.w3.org/2000/svg" viewBox="0 0 22 26" preserveAspectRatio="xMidYMid Meet">
    <g fill="none" fill-rule="evenodd" stroke-width=".5">
        <path fill="#FFF" stroke="#037CA3" d="M3.001 11.107L1.134 14.81s-.656 1.353.933 1.668h1.194v3.151s-.1 1.431 1.471 1.698h3.425L9.32 25l10.721-3.26-1.595-5.274s3.297-2.974 2.493-7.722c-.803-4.748-4.778-7.691-8.839-7.629-4.06.062-7.165 2.57-8.331 5.162C2.602 8.87 3 11.107 3 11.107z" opacity=".643"/>
        <path stroke="#578E3F" d="M10.166 10.457a1.65 1.65 0 1 1-3.302 0 1.65 1.65 0 0 1 3.302 0zM9.921 9.593l2.318-1.36M9.921 11.32l2.312 1.354"/>
        <path stroke="#008A95" d="M15.322 7.413a1.65 1.65 0 1 1-3.302 0 1.65 1.65 0 0 1 3.302 0z"/>
        <path stroke="#731F61" d="M15.322 13.482a1.651 1.651 0 1 1-3.303 0 1.651 1.651 0 0 1 3.303 0z"/>
    </g>
</svg>
